# xmcd
#
# Track frame offsets:
#	150
#	9048
#	21925
#	32293
#	42387
#	52261
#	62813
#	73860
#	83396
#	94873
#	104029
#	115308
#	128531
#	139006
#	150649
#	162344
#	173705
#	185386
#	196535
#	208993
#	218301
#	229654
#
# Disc length: 3191 seconds
#
# Revision: 3
# Processed by: cddbd v1.5.2PL0 Copyright (c) Steve Scherf et al.
# Submitted via: audiograbber 1.83.01
#
DISCID=200c7516
DTITLE=Johnny Horton - Six Classic Albums Plus Bonus Singles  [CD1)
DYEAR=2015
DGENRE=Oldies
TTITLE0=Hot In The Sugarcane Field
TTITLE1=Lonesome And Heartbroken
TTITLE2=Seven Comes Eleven
TTITLE3=I Can't Forget You
TTITLE4=Wise To The Ways Of A Woman
TTITLE5=Out In New Mexico
TTITLE6=Tetched In The Head
TTITLE7=Just Walk A Little Closer
TTITLE8=Don't Use My Heart For A Stepping Stone
TTITLE9=I Love You Baby
TTITLE10=The Battle Of New Orleans
TTITLE11=Whispering Pines
TTITLE12=The First Train Heading South
TTITLE13=Lost Highway
TTITLE14=Joe's Been Gittin' There
TTITLE15=Sam Magee
TTITLE16=When It's Springtime In Alaska
TTITLE17=Cherokee Boogie
TTITLE18=All For The Love Of A Girl
TTITLE19=The Golden Rocket
TTITLE20=Mister Moonlight
TTITLE21=Got The Bull By The Horns
EXTD=
EXTT0=
EXTT1=
EXTT2=
EXTT3=
EXTT4=
EXTT5=
EXTT6=
EXTT7=
EXTT8=
EXTT9=
EXTT10=
EXTT11=
EXTT12=
EXTT13=
EXTT14=
EXTT15=
EXTT16=
EXTT17=
EXTT18=
EXTT19=
EXTT20=
EXTT21=
PLAYORDER=
